<?xml version="1.0" standalone="no"?>
<!DOCTYPE svg PUBLIC "-//W3C//DTD SVG 20010904//EN"
 "http://www.w3.org/TR/2001/REC-SVG-20010904/DTD/svg10.dtd">
<svg version="1.0" xmlns="http://www.w3.org/2000/svg"
 width="200.000000pt" height="200.000000pt" viewBox="0 0 200.000000 200.000000"
 preserveAspectRatio="xMidYMid meet">
<metadata>
Created by potrace 1.11, written by Peter Selinger 2001-2013
</metadata>
<g transform="translate(0.000000,200.000000) scale(0.100000,-0.100000)"
fill="#000000" stroke="none">
<path d="M1587 1791 c-102 -100 -125 -118 -140 -109 -12 6 -22 6 -31 -1 -8 -6
-21 -8 -30 -5 -10 4 -25 -1 -36 -11 -17 -15 -22 -16 -36 -4 -14 12 -19 10 -40
-14 -13 -15 -28 -27 -34 -27 -5 0 -10 -4 -10 -9 0 -5 -16 -24 -35 -42 -118
-114 -112 -105 -89 -131 l19 -23 -21 18 c-24 20 -54 14 -54 -11 0 -9 17 -34
37 -57 l38 -40 -46 43 c-42 40 -48 42 -60 27 -8 -9 -25 -27 -39 -40 l-24 -25
39 -42 40 -43 -41 38 c-27 25 -46 36 -57 31 -9 -3 -17 -11 -17 -16 0 -6 -11
-19 -25 -30 -14 -11 -23 -24 -20 -29 4 -5 0 -9 -8 -9 -8 0 -20 -7 -27 -15 -11
-13 -9 -20 11 -43 l24 -27 -26 23 c-31 27 -47 28 -57 2 -7 -18 -12 -16 -60 26
-43 38 -55 44 -67 34 -8 -7 -15 -17 -15 -23 0 -7 30 -42 67 -79 l67 -68 -79
-80 -79 -79 -44 24 c-45 26 -72 22 -72 -10 0 -14 216 -235 230 -235 4 0 13 7
20 15 11 13 9 23 -8 54 -12 21 -22 43 -22 49 0 6 34 46 76 88 l76 78 70 -73
71 -73 20 20 20 20 -41 49 -42 48 258 257 c231 232 256 260 245 277 -10 16 -9
22 3 32 8 7 14 22 13 33 -1 12 1 29 6 39 4 9 4 24 1 33 -4 11 30 54 114 144
66 70 120 130 120 134 0 25 -47 -10 -153 -113z m-376 -288 c13 -16 12 -17 -3
-4 -10 7 -18 15 -18 17 0 8 8 3 21 -13z m-266 -253 c10 -11 16 -20 13 -20 -3
0 -13 9 -23 20 -10 11 -16 20 -13 20 3 0 13 -9 23 -20z"/>
<path d="M517 789 c-9 -5 -49 -16 -88 -24 -73 -14 -101 -32 -114 -72 -8 -27 0
-28 49 -8 68 29 75 -3 16 -65 -70 -73 -37 -101 61 -55 64 31 94 28 84 -7 -4
-13 -14 -31 -23 -40 -14 -16 -13 -18 6 -18 39 0 80 46 88 98 3 26 15 62 25 80
24 42 24 44 -5 36 -13 -3 -34 0 -46 6 -18 10 -21 18 -17 46 6 36 -3 42 -36 23z"/>
<path d="M1154 355 c-4 -8 -3 -22 0 -31 8 -21 50 -14 54 10 6 31 -43 50 -54
21z"/>
<path d="M221 347 c-8 -10 -4 -35 18 -100 36 -105 69 -167 91 -167 10 0 35 42
73 125 31 68 57 132 57 140 0 12 -8 15 -27 13 -23 -3 -33 -15 -65 -81 -21 -43
-42 -76 -47 -73 -5 3 -19 40 -32 81 -24 76 -42 93 -68 62z"/>
<path d="M1737 353 c-4 -3 -7 -16 -7 -29 0 -12 -7 -24 -15 -28 -8 -3 -15 -15
-15 -26 0 -11 7 -20 15 -20 12 0 15 -16 15 -80 0 -79 0 -80 25 -80 14 0 25 6
26 13 1 6 2 21 3 32 1 11 3 41 4 66 2 38 6 48 23 52 17 5 19 9 10 26 -7 12
-17 18 -26 15 -12 -5 -15 2 -15 30 0 28 -4 36 -18 36 -10 0 -22 -3 -25 -7z"/>
<path d="M774 300 c-38 -15 -64 -59 -64 -107 0 -55 12 -78 52 -99 36 -19 112
-14 134 8 12 12 12 17 0 33 -12 17 -17 18 -53 6 -54 -18 -83 -3 -83 42 0 18 7
40 14 50 16 20 67 23 96 5 17 -11 22 -10 30 2 8 11 2 22 -20 43 -31 28 -66 33
-106 17z"/>
<path d="M974 291 c-58 -35 -71 -122 -26 -172 37 -42 114 -52 152 -21 24 20
24 22 8 38 -14 15 -21 16 -43 6 -36 -17 -59 -15 -78 6 -36 40 -8 102 47 102
17 0 37 -5 43 -11 15 -15 43 -4 43 15 0 23 -50 56 -84 56 -17 0 -45 -9 -62
-19z"/>
<path d="M507 289 c-25 -14 -47 -62 -47 -102 0 -24 9 -42 32 -66 29 -29 37
-32 80 -29 26 2 48 -1 48 -5 0 -5 12 -7 28 -5 l27 3 3 106 3 106 -78 1 c-43 1
-86 -3 -96 -9z m89 -47 c22 -14 26 -52 10 -77 -19 -29 -42 -32 -75 -9 -49 35
14 120 65 86z"/>
<path d="M1341 291 c-7 -5 -31 -6 -53 -4 l-39 6 3 -104 3 -104 28 -3 c26 -3
27 -1 27 38 0 75 47 147 71 109 5 -8 9 -44 9 -81 l0 -68 33 0 34 0 -4 58 c-6
79 -20 118 -50 142 -28 22 -41 24 -62 11z"/>
<path d="M1533 290 c-13 -5 -32 -24 -43 -42 -49 -81 -3 -163 90 -163 38 0 54
5 74 25 15 13 26 31 25 40 -1 8 1 23 6 33 9 21 -9 69 -35 92 -22 20 -86 28
-117 15z m72 -61 c5 -5 -9 -9 -34 -9 -38 0 -42 2 -31 15 13 15 45 12 65 -6z
m24 -64 c3 -3 -5 -16 -17 -28 -21 -20 -24 -21 -50 -7 -15 9 -28 24 -30 34 -4
17 1 18 44 12 26 -3 50 -8 53 -11z"/>
<path d="M1153 191 c-2 -93 -1 -99 19 -105 12 -3 25 -3 30 0 4 3 8 50 8 105
l0 99 -27 0 -28 0 -2 -99z"/>
</g>
</svg>
